<svg version="1.1" xmlns="http://www.w3.org/2000/svg" xmlns:xlink="http://www.w3.org/1999/xlink" width="594.27419" height="412.66372" viewBox="0,0,594.27419,412.66372"><g transform="translate(4.65212,1.41129)"><g data-paper-data="{&quot;isPaintingLayer&quot;:true}" fill-rule="nonzero" stroke-linejoin="miter" stroke-miterlimit="10" stroke-dasharray="" stroke-dashoffset="0" style="mix-blend-mode: normal"><path d="M0.01115,0h479.9777v360h-479.9777z" fill="#d0f6ff" stroke="#ff0000" stroke-width="0.5" stroke-linecap="butt"/><path d="M72.3,128.3l-0.3,-0.3" fill="none" stroke="#ccd8ff" stroke-width="2" stroke-linecap="round"/><path d="M-1.41337,20.16229l40.02254,-0.0034l0.12899,345.77559l-40.02254,0.0034z" fill="#d0f6ff" stroke="#000000" stroke-width="0.5" stroke-linecap="butt"/><path d="M440.81243,88.74271l38.28621,-0.00317l0.1234,322.25969l-38.28621,0.00318z" fill="#d0f6ff" stroke="#000000" stroke-width="0.5" stroke-linecap="butt"/><path d="M-4.40212,37.16129v-38.32258h488.6129v38.32258z" fill="#d0f6ff" stroke="#000000" stroke-width="0.5" stroke-linecap="butt"/><path d="M100.75917,364.41936v-43.54839h488.6129v43.54839z" fill="#d0f6ff" stroke="#000000" stroke-width="0.5" stroke-linecap="butt"/><g fill="#d0f6ff" stroke="#000000" stroke-width="0.5" stroke-linecap="butt"><path d="M39.9163,212.33814v-52.66484h53.4066v52.66484z"/><path d="M39.72399,265.55243v-52.66484h53.4066v52.66484z"/></g><path d="M151.53717,320.25023v-52.66483h53.4066v52.66483z" fill="#d0f6ff" stroke="#000000" stroke-width="0.5" stroke-linecap="butt"/><path d="M151.34487,268.13485v-52.66483h53.4066v52.66483z" fill="#d0f6ff" stroke="#000000" stroke-width="0.5" stroke-linecap="butt"/><path d="M39.14706,89.92056v-52.66483h53.4066v52.66484z" fill="#d0f6ff" stroke="#000000" stroke-width="0.5" stroke-linecap="butt"/><path d="M151.70201,158.71177v-52.66483h53.40659v52.66484z" fill="#d0f6ff" stroke="#000000" stroke-width="0.5" stroke-linecap="butt"/><path d="M204.17454,158.51946v-52.66484h53.40659v52.66484z" fill="#d0f6ff" stroke="#000000" stroke-width="0.5" stroke-linecap="butt"/><path d="M204.53168,211.54144v-52.66483h53.40659v52.66483z" fill="#d0f6ff" stroke="#000000" stroke-width="0.5" stroke-linecap="butt"/><path d="M257.74596,211.34913v-52.66484h53.40659v52.66484z" fill="#d0f6ff" stroke="#000000" stroke-width="0.5" stroke-linecap="butt"/><path d="M257.55366,263.82166v-52.66484h53.40659v52.66484z" fill="#d0f6ff" stroke="#000000" stroke-width="0.5" stroke-linecap="butt"/><path d="M321.89432,90.05792v-52.66483h53.40659v52.66484z" fill="#d0f6ff" stroke="#000000" stroke-width="0.5" stroke-linecap="butt"/><path d="M387.71849,210.77221v-52.66484h53.40659v52.66484z" fill="#d0f6ff" stroke="#000000" stroke-width="0.5" stroke-linecap="butt"/><path d="M387.52618,263.24474v-52.66484h53.4066v52.66484z" fill="#d0f6ff" stroke="#000000" stroke-width="0.5" stroke-linecap="butt"/></g></g></svg>